PathFileType  4	(X/Y/Z) C:\simtk\uwmodels\fbknee\data\invivovalid3\exp\aclc01\Files_W_HJCs
DataRate	CameraRate	NumFrames	NumMarkers	Units	OrigDataRate	OrigDataStartFrame	OrigNumFrames
  200.0      200.0       4         52 mm      200.0         1      1204
Frame#	Time            R.Shoulder                       R.Clavicle                       R.Bicep                          R.Elbow                          R.Forearm                        R.Wrist                          L.Shoulder                       L.Clavicle                       L.Scapula                        L.Bicep                          L.Elbow                          L.Forearm                        L.Wrist                          R.ASIS                           R.PSIS                           S2                               L.PSIS                           L.ASIS                           R.TH1                            R.TH2                            R.TH3                            R.Knee                           R.SH1                            R.SH2                            R.SH3                            R.SH4                            R.Ankle                          R.Heel                           R.MT5                            L.TH1                            L.TH2                            L.TH3                            L.TH4                            L.Knee                           L.SH1                            L.SH2                            L.SH3                            L.Ankle                          L.Heel                           L.MT5                            R.Melb                           R.GTR                            R.Mkn                            R.Man                            R.MT0                            L.Melb                           L.GTR                            L.Mkn                            L.Man                            L.MT0                            R_HJC                            L_HJC                  
                     X1         Y1         Z1         X2         Y2         Z2         X3         Y3         Z3         X4         Y4         Z4         X5         Y5         Z5         X6         Y6         Z6         X7         Y7         Z7         X8         Y8         Z8         X9         Y9         Z9         X10         Y10         Z10         X11         Y11         Z11         X12         Y12         Z12         X13         Y13         Z13         X14         Y14         Z14         X15         Y15         Z15         X16         Y16         Z16         X17         Y17         Z17         X18         Y18         Z18         X19         Y19         Z19         X20         Y20         Z20         X21         Y21         Z21         X22         Y22         Z22         X23         Y23         Z23         X24         Y24         Z24         X25         Y25         Z25         X26         Y26         Z26         X27         Y27         Z27         X28         Y28         Z28         X29         Y29         Z29         X30         Y30         Z30         X31         Y31         Z31         X32         Y32         Z32         X33         Y33         Z33         X34         Y34         Z34         X35         Y35         Z35         X36         Y36         Z36         X37         Y37         Z37         X38         Y38         Z38         X39         Y39         Z39         X40         Y40         Z40         X41         Y41         Z41         X42         Y42         Z42         X43         Y43         Z43         X44         Y44         Z44         X45         Y45         Z45         X46         Y46         Z46         X47         Y47         Z47         X48         Y48         Z48         X49         Y49         Z49         X50         Y50         Z50         X51         Y51         Z51         X52         Y52         Z52         

	1	0.00000	533.363	1935.268	1606.203	614.334	2081.837	1600.043	583.262	1883.802	1397.208	467.166	1852.099	1306.561	548.534	1762.924	1247.935	500.492	1731.789	1133.753	569.979	2308.744	1608.906	625.077	2139.040	1600.428	442.022	2214.934	1576.315	612.083	2352.334	1452.311	515.857	2409.157	1314.318	580.228	2470.613	1248.304	544.204	2498.328	1131.328	658.217	1985.952	1151.660	427.713	2068.102	1226.962	418.344	2120.510	1221.335	432.880	2173.195	1228.344	656.427	2241.733	1140.536	596.219	1905.486	945.199	445.028	1933.953	958.788	441.996	1942.279	883.841	494.522	1912.790	736.398	519.468	1880.627	604.026	519.297	1887.601	529.541	409.809	1928.456	610.235	408.206	1924.152	533.823	481.852	1893.879	333.151	416.000	1943.641	299.427	601.226	1863.847	276.332	600.085	2311.569	907.451	603.178	2298.537	826.376	451.656	2304.559	907.589	446.154	2300.042	832.054	497.673	2312.477	727.417	540.240	2333.601	641.699	428.635	2319.501	642.381	423.740	2335.702	566.597	505.344	2357.309	338.292	421.579	2325.623	296.983	604.830	2384.169	278.569	539.135	1922.111	1274.080	536.496	1892.241	1094.328	510.633	2077.278	693.921	506.683	1984.807	337.282	618.097	1978.483	279.223	588.325	2315.893	1269.659	526.511	2323.425	1112.233	500.473	2145.104	695.116	511.272	2261.974	333.990	624.157	2261.431	279.345	560.168	2015.155	1101.801	552.939	2213.243	1080.573
	2	0.00500	533.152	1935.191	1606.338	614.334	2081.837	1600.043	583.588	1883.602	1397.367	467.194	1852.183	1306.507	548.534	1762.924	1247.935	500.492	1731.789	1133.753	569.833	2308.716	1608.862	625.049	2139.042	1600.655	442.022	2214.934	1576.315	612.139	2352.480	1452.081	515.857	2409.157	1314.318	579.643	2470.540	1247.986	544.204	2498.328	1131.328	657.690	1986.318	1151.752	426.779	2067.650	1227.113	418.256	2120.386	1221.422	432.197	2174.059	1229.141	656.243	2241.640	1140.505	596.222	1905.543	945.380	445.038	1934.023	958.739	441.996	1942.279	883.841	494.522	1912.790	736.398	519.468	1880.627	604.026	519.197	1887.356	529.565	409.794	1928.388	610.277	408.043	1924.083	533.760	481.852	1893.879	333.151	416.000	1943.641	299.427	601.226	1863.847	276.332	599.979	2311.646	907.386	603.381	2298.631	826.403	451.526	2305.548	908.372	446.258	2299.738	831.920	497.756	2312.629	727.286	540.074	2333.456	641.705	428.793	2319.293	642.250	423.918	2335.850	566.625	505.330	2357.376	338.208	421.579	2325.623	296.983	604.830	2384.169	278.569	539.089	1921.925	1273.864	537.167	1891.719	1094.441	510.396	2077.379	693.830	506.443	1984.804	337.120	619.007	1978.725	279.421	588.325	2315.893	1269.659	525.846	2323.399	1112.107	500.473	2145.104	695.116	511.327	2262.006	333.881	624.157	2261.431	279.345	559.561	2015.306	1101.921	552.415	2213.411	1080.827
	3	0.01000	533.152	1935.191	1606.338	614.334	2081.837	1600.043	583.588	1883.602	1397.367	467.194	1852.183	1306.507	548.603	1762.945	1248.153	500.492	1731.789	1133.753	569.988	2308.756	1608.879	625.057	2139.050	1600.429	442.341	2215.020	1576.585	612.038	2352.508	1452.058	515.676	2409.216	1314.384	580.120	2470.633	1248.275	544.679	2498.013	1130.820	657.137	1987.078	1151.673	426.779	2067.650	1227.113	418.489	2120.663	1221.275	432.966	2173.664	1228.293	656.427	2241.733	1140.536	596.222	1905.543	945.380	445.165	1934.167	958.682	441.780	1942.405	883.928	494.522	1912.790	736.398	519.468	1880.627	604.026	519.280	1887.229	529.626	409.809	1928.456	610.235	408.272	1923.929	534.136	481.852	1893.879	333.151	416.000	1943.641	299.427	601.226	1863.847	276.332	600.130	2311.632	907.512	603.178	2298.537	826.376	451.477	2306.028	908.323	446.148	2300.220	831.657	497.849	2312.635	727.257	540.149	2333.437	641.621	428.793	2319.293	642.250	424.062	2335.764	566.874	505.320	2357.408	338.178	421.579	2325.623	296.983	604.986	2384.090	278.630	538.769	1922.172	1273.964	536.298	1891.943	1094.109	510.396	2077.379	693.830	506.443	1984.804	337.120	619.007	1978.725	279.421	588.325	2315.893	1269.659	526.281	2323.034	1111.850	500.476	2145.033	694.963	510.924	2261.808	334.048	624.078	2261.530	279.284	559.710	2015.474	1101.699	552.616	2213.588	1080.665
	4	0.01500	533.152	1935.191	1606.338	614.334	2081.837	1600.043	583.235	1883.795	1397.294	467.166	1852.099	1306.561	548.534	1762.924	1247.935	500.492	1731.789	1133.753	569.856	2308.713	1608.859	625.064	2139.157	1600.722	442.404	2215.021	1576.550	612.207	2352.504	1451.831	515.676	2409.216	1314.384	580.120	2470.633	1248.275	544.385	2498.454	1131.282	657.690	1986.318	1151.752	427.713	2068.102	1226.962	418.489	2120.663	1221.275	432.197	2174.059	1229.141	656.465	2241.686	1140.460	596.222	1905.543	945.380	445.104	1934.403	958.637	441.816	1942.445	883.924	494.522	1912.790	736.398	519.490	1880.486	604.051	518.960	1887.033	529.636	409.794	1928.388	610.277	408.030	1924.218	533.828	481.852	1893.879	333.151	416.000	1943.641	299.427	601.492	1863.865	276.053	600.148	2311.668	907.357	603.126	2298.588	826.320	451.680	2305.852	908.170	446.061	2300.113	831.716	497.756	2312.629	727.286	540.191	2333.543	641.708	428.822	2319.238	642.321	423.943	2335.777	566.754	505.330	2357.376	338.208	421.579	2325.623	296.983	604.603	2384.248	278.519	539.455	1921.864	1273.980	537.167	1891.719	1094.441	510.396	2077.379	693.830	506.443	1984.804	337.120	618.242	1978.450	279.021	587.517	2315.825	1269.601	526.945	2323.060	1111.976	500.476	2145.033	694.963	511.272	2261.974	333.990	624.198	2261.424	279.342	559.794	2015.424	1101.873	552.723	2213.528	1080.735
